<svg xmlns="http://www.w3.org/2000/svg" xmlns:xlink="http://www.w3.org/1999/xlink" width="2000" zoomAndPan="magnify" viewBox="0 0 1500 974.999993" height="1300" preserveAspectRatio="xMidYMid meet" version="1.2"><g id="74b272241f"><rect x="0" width="1500" y="0" height="974.999993" style="fill:#ffffff;fill-opacity:1;stroke:none;"/><rect x="0" width="1500" y="0" height="974.999993" style="fill:#ffffff;fill-opacity:1;stroke:none;"/><path style=" stroke:none;fill-rule:nonzero;fill:#1e3a8a;fill-opacity:1;" d="M -220.660156 163.152344 C -140.132812 182.386719 -59.96875 202.652344 19.832031 223.945312 L 9.257812 263.667969 C -70.191406 242.464844 -150.003906 222.292969 -230.179688 203.144531 Z M 59.769531 234.699219 C 139.636719 256.390625 219.140625 279.117188 298.277344 302.882812 L 286.46875 342.257812 C 207.683594 318.597656 128.53125 295.96875 49.015625 274.375 Z M 337.847656 314.863281 C 416.976562 339.007812 495.738281 364.195312 574.128906 390.417969 L 561.09375 429.402344 C 483.050781 403.292969 404.640625 378.222656 325.863281 354.183594 Z M 613.308594 403.621094 C 691.617188 430.207031 769.554688 457.832031 847.128906 486.496094 L 832.875 525.050781 C 755.648438 496.511719 678.058594 469.011719 600.097656 442.546875 Z M 885.878906 500.910156 C 963.285156 529.90625 1040.328125 559.945312 1117 591.019531 L 1101.546875 629.109375 C 1025.214844 598.171875 948.515625 568.269531 871.453125 539.402344 Z M 1155.285156 606.632812 C 1231.722656 638.007812 1307.792969 670.417969 1383.5 703.867188 L 1366.867188 741.457031 C 1291.496094 708.15625 1215.761719 675.890625 1139.664062 644.65625 Z M 1421.285156 720.660156 C 1492.992188 752.722656 1564.371094 785.714844 1635.421875 819.640625 L 1617.679688 856.722656 C 1546.941406 822.945312 1475.878906 790.097656 1404.484375 758.175781 Z M 1421.285156 720.660156 "/><path style=" stroke:none;fill-rule:nonzero;fill:#dc2626;fill-opacity:1;" d="M 452.375 -133.113281 L 525.261719 -115.414062 L 507.621094 -42.65625 L 434.734375 -60.355469 Z M 598.558594 -96.992188 L 671.132812 -78.132812 L 652.328125 -5.671875 L 579.753906 -24.53125 Z M 744.144531 -58.535156 L 816.394531 -38.519531 L 796.421875 33.628906 L 724.171875 13.613281 Z M 889.085938 -17.746094 L 961.015625 3.433594 L 939.878906 75.25 L 867.949219 54.070312 Z M 1033.351562 25.371094 L 1104.933594 47.714844 L 1082.636719 119.179688 L 1011.054688 96.835938 Z M 1176.902344 70.820312 L 1248.113281 94.320312 L 1224.660156 165.414062 L 1153.449219 141.914062 Z M 1319.707031 118.589844 L 1390.523438 143.238281 L 1365.917969 213.941406 L 1295.097656 189.292969 Z M 1461.714844 168.667969 L 1532.125 194.460938 L 1506.371094 264.753906 L 1435.960938 238.957031 Z M 1602.890625 221.035156 L 1672.871094 247.96875 L 1645.980469 317.832031 L 1576 290.902344 Z M 1743.207031 275.6875 L 1812.734375 303.746094 L 1784.714844 373.164062 L 1715.183594 345.105469 Z M 1882.605469 332.597656 L 1951.683594 361.777344 L 1922.539062 430.730469 L 1853.464844 401.554688 Z M 2021.070312 391.746094 L 2089.679688 422.039062 L 2059.425781 490.515625 L 1990.816406 460.222656 Z M 2158.566406 453.117188 L 2226.671875 484.5 L 2195.320312 552.480469 L 2127.214844 521.097656 Z M 2294.964844 516.632812 L 2311.101562 524.324219 L 2278.871094 591.890625 L 2262.734375 584.203125 Z M 2294.964844 516.632812 "/><path style=" stroke:none;fill-rule:nonzero;fill:#dc2626;fill-opacity:1;" d="M -277.605469 619.023438 L -204.71875 636.722656 L -222.359375 709.476562 L -295.246094 691.777344 Z M -131.421875 655.144531 L -58.847656 674 L -77.652344 746.460938 L -150.226562 727.605469 Z M 14.164062 693.597656 L 86.414062 713.617188 L 66.441406 785.765625 L -5.808594 765.746094 Z M 159.105469 734.386719 L 231.035156 755.570312 L 209.898438 827.386719 L 137.96875 806.203125 Z M 303.371094 777.507812 L 374.953125 799.851562 L 352.65625 871.316406 L 281.074219 848.972656 Z M 446.921875 822.957031 L 518.136719 846.457031 L 494.679688 917.546875 L 423.46875 894.050781 Z M 589.726562 870.726562 L 660.542969 895.375 L 635.9375 966.074219 L 565.117188 941.425781 Z M 731.734375 920.800781 L 802.144531 946.59375 L 776.390625 1016.886719 L 705.980469 991.09375 Z M 872.910156 973.171875 L 942.890625 1000.101562 L 916 1069.964844 L 846.019531 1043.035156 Z M 1013.226562 1027.824219 L 1082.753906 1055.878906 L 1054.734375 1125.296875 L 985.203125 1097.242188 Z M 1152.628906 1084.730469 L 1221.703125 1113.910156 L 1192.558594 1182.867188 L 1123.484375 1153.6875 Z M 1291.089844 1143.882812 L 1359.699219 1174.171875 L 1329.445312 1242.648438 L 1260.835938 1212.359375 Z M 1428.585938 1205.25 L 1496.691406 1236.632812 L 1465.339844 1304.613281 L 1397.234375 1273.230469 Z M 1564.984375 1268.765625 L 1581.121094 1276.457031 L 1548.890625 1344.027344 L 1532.753906 1336.335938 Z M 1564.984375 1268.765625 "/></g></svg>